<svg width="38" height="34" viewBox="0 0 38 34" fill="none" xmlns="http://www.w3.org/2000/svg">
<path d="M34.4869 28.4976L34.2886 28.5462C32.8612 26.5944 33.4928 24.7378 33.5199 24.662C33.6118 24.4164 33.5617 24.1417 33.3891 23.9441C33.2179 23.7478 32.9522 23.6611 32.697 23.7174L31.9326 23.8878L31.8692 23.8795L20.5392 26.7066C20.4932 26.7191 20.4473 26.7218 20.402 26.7233C20.3944 26.7239 20.3881 26.7281 20.3797 26.7281C20.3757 26.7266 20.3707 26.7281 20.3666 26.7281H20.3658L20.3644 26.7273C20.317 26.7273 20.2684 26.7225 20.2211 26.7133L5.09941 23.5615L2.1463 24.1264L1.42989 23.9887C1.1592 23.9344 0.884215 24.0443 0.722475 24.2656C-1.23708 26.9242 1.39792 30.2285 1.5117 30.3675C1.61567 30.4947 1.75901 30.5825 1.91927 30.6159L18.0842 33.9847C18.1317 33.9945 18.1805 33.9993 18.2274 33.9993L18.2289 34H18.2295C18.2344 34 18.2396 33.9985 18.2431 34C18.2514 34 18.258 33.9958 18.265 33.9951C18.3105 33.993 18.3561 33.9903 18.402 33.9785L34.832 29.8792C35.2139 29.7845 35.4455 29.3978 35.3509 29.0158C35.2547 28.6332 34.8673 28.401 34.4869 28.4976ZM2.47328 29.2759C2.06395 28.6972 0.963742 26.9256 1.64684 25.4808L3.67908 25.8709C3.60291 26.7251 3.62722 28.1999 4.36473 29.6703L2.47328 29.2759ZM6.34188 30.0822C6.33839 30.078 6.33772 30.0725 6.33382 30.0682C5.13662 28.7132 5.03479 27.0535 5.08933 26.1416L11.8749 27.4437C11.7773 28.1894 11.7031 29.7586 12.4398 31.3523L6.34188 30.0822ZM14.3573 31.7524C13.1679 30.266 13.195 28.4864 13.2795 27.7137L16.599 28.3517C16.2627 29.3686 16.1124 30.8071 16.7281 32.247L14.3573 31.7524ZM18.5028 32.4848C17.2685 30.8064 17.812 29.0841 18.0948 28.4413L31.9513 25.3443C31.8782 26.241 31.9903 27.5473 32.8208 28.9128L18.5028 32.4848Z" fill="#22508E"/>
<path d="M36.6243 20.5852L36.426 20.6346C34.9985 18.682 35.6302 16.826 35.6573 16.7496C35.7492 16.5047 35.6991 16.2296 35.5265 16.0324C35.3553 15.8359 35.0896 15.7489 34.8344 15.8054L34.07 15.9761L23.0843 14.5309C22.7413 14.9816 22.3462 15.446 21.8906 15.9243C21.4794 16.3544 20.8262 16.6021 20.0993 16.6021C19.8559 16.6021 19.6214 16.5743 19.3996 16.5196C18.5903 16.3165 17.7235 16.32 16.9142 16.5203C16.6934 16.5752 16.4586 16.602 16.2169 16.602C15.4889 16.602 14.8358 16.3551 14.4239 15.9233C13.9603 15.4367 13.5613 14.9651 13.2139 14.5078L4.28302 16.2147L3.56661 16.0773C3.29605 16.023 3.02093 16.133 2.85919 16.3544C0.899634 19.0124 3.53463 22.3172 3.64842 22.4555C3.75239 22.5836 3.89573 22.6706 4.05613 22.7046L20.2213 26.0727C20.2687 26.0823 20.3174 26.088 20.3647 26.088C20.3653 26.088 20.3653 26.0886 20.366 26.0886C20.3667 26.0886 20.3667 26.0886 20.3667 26.0886C20.3715 26.0886 20.3765 26.0872 20.38 26.0886C20.3883 26.0886 20.3953 26.0838 20.4023 26.083C20.4474 26.081 20.4933 26.0782 20.5386 26.067L36.969 21.9679C37.3509 21.8732 37.5824 21.4864 37.4878 21.1045C37.3923 20.7217 37.0047 20.4885 36.6243 20.5852ZM4.61067 21.3628C4.20134 20.7841 3.10113 19.0125 3.78423 17.5684L5.81647 17.9585C5.7403 18.8121 5.76461 20.2868 6.50198 21.7579L4.61067 21.3628ZM8.47927 22.1698C8.47578 22.165 8.47511 22.1595 8.47121 22.1553C7.27401 20.8002 7.17218 19.1411 7.22673 18.2292L14.0123 19.5313C13.9145 20.2771 13.8405 21.8463 14.5772 23.4393L8.47927 22.1698ZM16.4947 23.8407C15.3053 22.3541 15.3324 20.5747 15.4169 19.802L18.7364 20.4385C18.4001 21.4561 18.2498 22.8939 18.8655 24.3345L16.4947 23.8407ZM20.6406 24.5725C19.406 22.8925 19.9498 21.171 20.2323 20.5283L34.0888 17.4314C34.0157 18.3281 34.1278 19.6343 34.9584 20.9997L20.6406 24.5725Z" fill="#22508E"/>
<path d="M15.4745 1.40096C15.4946 1.40593 17.4489 1.94327 17.4433 4.35138C17.4426 4.74512 17.7602 5.06497 18.1542 5.06564C18.1549 5.06564 18.1549 5.06564 18.1555 5.06564C18.5479 5.06564 18.8671 4.74821 18.8679 4.35541C18.8749 1.5545 16.8861 0.296984 15.8337 0.0225355C15.4504 -0.0748581 15.0637 0.152304 14.9645 0.532744C14.8654 0.913049 15.0943 1.30115 15.4745 1.40096Z" fill="#22508E"/>
<path d="M14.9386 15.3807C15.3559 15.8182 16.1552 15.9229 16.7415 15.7775C17.1283 15.6812 17.6111 15.6042 18.1631 15.6042C18.7088 15.6042 19.1859 15.6811 19.5704 15.7767C20.1574 15.9228 20.9566 15.8188 21.3741 15.3806C27.3341 9.13086 22.7313 5.13839 21.3874 5.02152C20.6298 4.95543 19.7464 5.31854 19.0957 5.66459C18.5621 5.94804 17.7621 5.95328 17.2289 5.66983C16.5747 5.32203 15.6867 4.95543 14.9251 5.02152C13.5812 5.13853 8.97894 9.13099 14.9386 15.3807Z" fill="#EE5432"/>
</svg>
