<svg width="76" height="76" viewBox="0 0 76 76" fill="none" xmlns="http://www.w3.org/2000/svg">
<g clip-path="url(#clip0_218_19)">
<path d="M71.2583 54.1766C70.7543 54.1766 70.3482 53.7658 70.3482 53.2558C70.3482 52.7458 70.7543 52.335 71.2583 52.335H74.517C74.475 49.6471 74.1494 47.03 73.5684 44.512L70.3307 45.3903C70.2572 45.4115 70.1837 45.4186 70.1137 45.4186C69.7427 45.4186 69.4032 45.1672 69.3017 44.7883C69.1827 44.335 69.4487 43.8675 69.8967 43.7471L73.1484 42.8653C72.4168 40.2481 71.4088 37.7514 70.1557 35.407L67.1666 37.1529C67.0441 37.2238 66.9145 37.2592 66.7815 37.2592C66.5155 37.2592 66.2565 37.1211 66.113 36.8696C65.8995 36.4978 66.0255 36.0197 66.3965 35.8037L69.3962 34.0507C68.0031 31.685 66.3545 29.4893 64.4924 27.5061L61.9933 30.0347C61.8568 30.1728 61.6783 30.2436 61.4997 30.2436C61.3212 30.2436 61.1427 30.1728 61.0062 30.0347C60.7332 29.7584 60.7332 29.3087 61.0062 29.0324L63.5124 26.4968C61.5382 24.5455 59.3436 22.8208 56.974 21.3617L55.1644 24.5313C55.0489 24.7367 54.8354 24.85 54.6184 24.85C54.5099 24.85 54.4049 24.8217 54.3034 24.765C54.0023 24.588 53.8973 24.1984 54.0723 23.8938L55.8854 20.7172C53.4493 19.3325 50.8417 18.2205 48.1045 17.4272L47.1525 21.0182C47.086 21.2696 46.8584 21.4396 46.6134 21.4396C46.5644 21.4396 46.5154 21.4325 46.4664 21.4219C46.1689 21.3405 45.9904 21.0288 46.0709 20.7278L47.0195 17.1297C44.2928 16.4285 41.4437 16.039 38.5105 16V19.7397C38.5105 20.0124 38.29 20.2355 38.0205 20.2355C37.7509 20.2355 37.5304 20.0124 37.5304 19.7397V16C34.5483 16.039 31.6536 16.4427 28.885 17.1616L29.8335 20.7597C29.893 20.9863 29.76 21.2201 29.536 21.2803C29.501 21.2909 29.4625 21.2944 29.4275 21.2944C29.242 21.2944 29.074 21.1705 29.0215 20.9792L28.0729 17.3847C25.1923 18.2099 22.4551 19.3821 19.9105 20.8553L21.7236 24.032C21.8216 24.2019 21.7621 24.418 21.5941 24.5171C21.5381 24.549 21.4786 24.5632 21.4191 24.5632C21.2965 24.5632 21.181 24.4994 21.1145 24.3861L19.3049 21.213C16.7218 22.7783 14.3452 24.6552 12.2275 26.7943L14.7372 29.3335C14.8457 29.4433 14.8457 29.6239 14.7372 29.7337C14.6812 29.7903 14.6112 29.8151 14.5377 29.8151C14.4677 29.8151 14.3942 29.7868 14.3382 29.7337L11.832 27.198C9.72141 29.3972 7.87681 31.862 6.35423 34.5394L9.35739 36.2924C9.4589 36.3526 9.4939 36.4801 9.4344 36.5828C9.39589 36.6501 9.32589 36.689 9.25239 36.689C9.21738 36.689 9.18238 36.6784 9.14738 36.6607L6.14772 34.9077C4.66014 37.5992 3.49457 40.496 2.70353 43.5488L5.95871 44.4306C6.03221 44.4518 6.07771 44.5297 6.05671 44.6041C6.03921 44.6678 5.98321 44.7103 5.9202 44.7103C5.9097 44.7103 5.8957 44.7103 5.8852 44.7068L2.63702 43.8214C1.90548 46.736 1.51696 49.7852 1.51696 52.93C1.51696 53.0079 1.51696 53.0894 1.51696 53.1673H4.77914C4.82814 53.1673 4.86665 53.2062 4.86665 53.2558C4.86665 53.3054 4.82814 53.3443 4.77914 53.3443H1.52046C1.54146 55.2673 1.70597 57.1585 2.01049 59H33.4655L64.4924 39.3971L42.9052 59H74.0339C74.2929 57.4241 74.4505 55.8127 74.503 54.1766H71.2583Z" fill="white"/>
</g>
<defs>
<clipPath id="clip0_218_19">
<rect width="73" height="43" fill="white" transform="translate(2 16)"/>
</clipPath>
</defs>
</svg>
