<svg width="54" height="54" viewBox="0 0 54 54" fill="none" xmlns="http://www.w3.org/2000/svg">
<path d="M18.9551 29.2793C18.9551 31.8387 19.9718 34.2934 21.7816 36.1032C23.5914 37.913 26.046 38.9297 28.6055 38.9297C31.1649 38.9297 33.6195 37.913 35.4293 36.1032C37.2391 34.2934 38.2559 31.8387 38.2559 29.2793C38.2559 26.7199 37.2391 24.2652 35.4293 22.4554C33.6195 20.6456 31.1649 19.6289 28.6055 19.6289C26.046 19.6289 23.5914 20.6456 21.7816 22.4554C19.9718 24.2652 18.9551 26.7199 18.9551 29.2793Z" fill="#FA7676"/>
<path d="M36.8031 20.7538C36.2816 19.9335 35.1977 19.6874 34.3773 20.2089C33.557 20.7304 33.3109 21.8144 33.8324 22.6347C34.6527 23.9296 35.0863 25.4296 35.0863 26.9706C35.0863 27.9433 35.8715 28.7284 36.8441 28.7284C37.8168 28.7284 38.602 27.9433 38.602 26.9706C38.602 24.7616 37.9809 22.6112 36.8031 20.7538Z" fill="#10F1F1"/>
<path d="M32.5898 32.8242C31.0723 34.2832 29.0742 35.0859 26.9648 35.0859C22.4883 35.0859 18.8496 31.4473 18.8496 26.9707C18.8496 22.4941 22.4883 18.8555 26.9648 18.8555C28.3066 18.8555 29.584 19.1719 30.7617 19.793C31.6172 20.25 32.6836 19.9219 33.1406 19.0605C33.5977 18.2051 33.2695 17.1387 32.4082 16.6816C30.7441 15.7969 28.8633 15.334 26.9648 15.334C20.5488 15.334 15.334 20.5547 15.334 26.9648C15.334 33.3809 20.5547 38.6016 26.9707 38.6016C29.9883 38.6016 32.8535 37.4473 35.0273 35.3555C35.7246 34.6816 35.748 33.5684 35.0742 32.8711C34.4062 32.1738 33.293 32.1504 32.5898 32.8242Z" fill="#10F1F1"/>
<path d="M47.0215 18.7031C46.002 16.2305 46.1895 13.4004 47.4727 10.582C46.2816 9.09221 44.9319 7.73656 43.4473 6.53906C40.623 7.81641 37.7871 7.99805 35.3145 6.97266C32.8359 5.94141 30.9609 3.79687 29.877 0.878906C28.916 0.773437 27.9434 0.720703 26.959 0.720703C26.0273 0.720703 25.1074 0.767578 24.1992 0.867188C23.1035 3.78516 21.2285 5.92969 18.7441 6.96094C16.2539 7.99219 13.4004 7.78711 10.5586 6.48047C9.08203 7.66406 7.74023 9 6.55078 10.4707C7.85742 13.3184 8.05078 16.1719 7.01367 18.668C5.97656 21.1641 3.81445 23.0391 0.867187 24.123C0.767578 25.0605 0.714844 26.0156 0.714844 26.9766C0.714844 27.9199 0.767578 28.8516 0.861328 29.7656C3.80273 30.8555 5.96484 32.7422 6.99609 35.2383C8.02734 37.7344 7.82227 40.5879 6.51562 43.4355C7.69922 44.9063 9.04101 46.248 10.5176 47.4375C13.3652 46.1367 16.2188 45.9434 18.709 46.9805C21.1934 48.0117 23.0625 50.1621 24.1523 53.0859C25.0781 53.1855 26.0215 53.2383 26.9766 53.2383C27.9434 53.2383 28.8926 53.1855 29.8301 53.0859C30.9258 50.168 32.8008 48.0293 35.2852 47.0039C37.7578 45.9844 40.5937 46.1719 43.418 47.4551C44.9062 46.2598 46.2598 44.9063 47.4551 43.418C46.1777 40.5938 45.9961 37.7637 47.0273 35.291C48.0527 32.8242 50.1855 30.9551 53.0801 29.8711C53.1855 28.9219 53.2383 27.9551 53.2383 26.9824C53.2383 26.0273 53.1855 25.084 53.0859 24.1582C50.168 23.0449 48.0469 21.1758 47.0215 18.7031ZM43.7578 33.9316C42.4805 37.0078 42.5273 40.4238 43.793 43.793C40.4238 42.5215 37.0078 42.4629 33.9316 43.7344C30.8496 45.0059 28.4707 47.4551 26.9824 50.7305C25.5 47.4492 23.127 44.9941 20.0508 43.7168C18.5391 43.0898 16.9395 42.7793 15.3105 42.7793C13.623 42.7793 11.9004 43.1074 10.1895 43.752C11.4609 40.3828 11.5195 36.9668 10.248 33.8906C8.97656 30.8086 6.52734 28.4297 3.25195 26.9414C6.5332 25.459 8.98828 23.0859 10.2656 20.0098C11.543 16.9336 11.4961 13.5176 10.2305 10.1484C11.9531 10.7988 13.6875 11.1328 15.3809 11.1328C17.0039 11.1328 18.5859 10.8281 20.0918 10.207C23.1738 8.93555 25.5527 6.48633 27.041 3.21094C28.5234 6.49219 30.8965 8.94727 33.9727 10.2246C37.0488 11.502 40.4648 11.4551 43.834 10.1895C42.5625 13.5586 42.5039 16.9746 43.7754 20.0508C45.0469 23.1328 47.4961 25.5117 50.7715 27C47.4902 28.4766 45.0352 30.8496 43.7578 33.9316Z" fill="#22518E"/>
</svg>
