<svg width="378" height="378" viewBox="0 0 378 378" fill="none" xmlns="http://www.w3.org/2000/svg">
	<style>
        @keyframes pulse {
            0% { r: 189; }
            50% { r: 200; }
            100% { r: 189; }
        }
        .animatable {
            animation: pulse 2s infinite;
        }
    </style>
 	<circle class="animatable" cx="189" cy="189" r="189" fill="url(#paint0_radial_2091_21)"/>
	<path d="M188.639 323.815L326.213 189.308H51.0654L188.639 323.815Z" fill="url(#paint1_linear_2091_21)"/>
	<path d="M286.761 138.02C310.342 138.095 326.21 146.873 327.134 174.465H207.526V138.02H286.761Z" fill="url(#paint2_linear_2091_21)"/>
	<path d="M289.994 115.101H207.526V93.6849H267.976C275.088 93.6849 289.994 94.5861 289.994 115.101Z" fill="url(#paint3_linear_2091_21)"/>
	<path d="M181.175 71.1418V125.245V174.465H51.0654C51.0654 150.419 73.9095 138.521 85.3315 138.02V131.257C85.3315 91.2803 124.339 74.5232 141.58 71.1418C144.594 60.7468 153.113 39.957 181.175 39.957C229.662 39.957 247.608 60.7468 250.52 71.1418H181.175Z" fill="url(#paint4_linear_2091_21)"/>
	<defs>
		<radialGradient id="paint0_radial_2091_21" cx="0" cy="0" r="1" gradientUnits="userSpaceOnUse" gradientTransform="translate(189 189) rotate(90) scale(189)">
		<stop stop-color="#1A0B73"/>
		<stop offset="0.62" stop-color="#301D58" stop-opacity="0.58"/>
		<stop offset="0.839" stop-color="#331E60" stop-opacity="0.329685"/>
		<stop offset="1" stop-opacity="0"/>
		</radialGradient>
		<linearGradient id="paint1_linear_2091_21" x1="188.639" y1="323.815" x2="188.639" y2="189.308" gradientUnits="userSpaceOnUse">
		<stop stop-color="#00FFFF"/>
		<stop offset="0.838542" stop-color="#3D3BB6"/>
		</linearGradient>
		<linearGradient id="paint2_linear_2091_21" x1="189.099" y1="39.957" x2="189.099" y2="174.465" gradientUnits="userSpaceOnUse">
		<stop stop-color="#00FFFF"/>
		<stop offset="0.838542" stop-color="#3D3BB6"/>
		</linearGradient>
		<linearGradient id="paint3_linear_2091_21" x1="189.099" y1="39.957" x2="189.099" y2="174.465" gradientUnits="userSpaceOnUse">
		<stop stop-color="#00FFFF"/>
		<stop offset="0.838542" stop-color="#3D3BB6"/>
		</linearGradient>
		<linearGradient id="paint4_linear_2091_21" x1="189.099" y1="39.957" x2="189.099" y2="174.465" gradientUnits="userSpaceOnUse">
		<stop stop-color="#00FFFF"/>
		<stop offset="0.838542" stop-color="#3D3BB6"/>
		</linearGradient>
	</defs>
</svg>
