<svg width="249" height="40" viewBox="0 0 249 40" fill="none" xmlns="http://www.w3.org/2000/svg">
<path d="M18.9367 39.0713L37.8733 20.5567H0L18.9367 39.0713Z" fill="url(#paint0_linear_2091_20)"/>
<path d="M32.4429 13.4981C35.6888 13.5084 37.8729 14.7167 38 18.5146H21.5363V13.4981H32.4429Z" fill="url(#paint1_linear_2091_20)"/>
<path d="M32.8878 10.3433H21.5363V7.39549H29.8571C30.8361 7.39549 32.8878 7.51954 32.8878 10.3433Z" fill="url(#paint2_linear_2091_20)"/>
<path d="M17.9093 4.29249V11.7397V18.5146H0C0 15.2047 3.14442 13.567 4.71663 13.4981V12.5672C4.71663 7.06451 10.0859 4.75794 12.459 4.29249C12.8739 2.86166 14.0465 0 17.9093 0C24.5833 0 27.0535 2.86166 27.4543 4.29249H17.9093Z" fill="url(#paint3_linear_2091_20)"/>
<path d="M66.49 7V10.96H58.09V15.94H66.25V19.9H58.09V28H53.95V7H66.49ZM85.4966 28H81.0266L76.7966 20.71H73.6466V28H69.5066V7H77.9066C79.8566 7 81.5066 7.69 82.8566 9.04C84.2066 10.39 84.8966 12.04 84.8966 13.96C84.8966 16.57 83.2766 18.97 80.8466 20.08L85.4966 28ZM77.9066 10.87H73.6466V17.08H77.9066C79.4666 17.08 80.7566 15.67 80.7566 13.96C80.7566 12.25 79.4666 10.87 77.9066 10.87ZM92.0744 19.33V24.04H100.924V28H87.9344V7H100.774V10.96H92.0744V15.43H100.024V19.33H92.0744ZM122.165 28H117.665L116.405 24.22H108.035L106.775 28H102.305L109.655 7H114.785L122.165 28ZM112.235 11.77L109.355 20.35H115.115L112.235 11.77ZM132.544 17.2L140.614 28H135.844L128.344 18.16V28H124.204V7H128.344V16.27L135.544 7H140.314L132.544 17.2ZM160.121 28.42C156.971 28.42 154.361 27.37 152.291 25.27C150.221 23.17 149.201 20.59 149.201 17.5C149.201 14.41 150.221 11.8 152.291 9.73C154.361 7.63 156.971 6.58 160.121 6.58C163.931 6.58 167.351 8.5 169.151 11.53L165.581 13.6C164.531 11.71 162.521 10.6 160.121 10.6C158.081 10.6 156.431 11.23 155.171 12.52C153.941 13.81 153.311 15.46 153.311 17.5C153.311 19.51 153.941 21.16 155.171 22.45C156.431 23.74 158.081 24.37 160.121 24.37C162.521 24.37 164.591 23.23 165.581 21.4L169.151 23.47C167.351 26.5 163.961 28.42 160.121 28.42ZM175.834 7V24.04H183.844V28H171.694V7H175.834ZM203.866 25.27C201.736 27.37 199.156 28.42 196.126 28.42C193.096 28.42 190.516 27.37 188.386 25.27C186.286 23.14 185.236 20.56 185.236 17.5C185.236 14.44 186.286 11.86 188.386 9.76C190.516 7.63 193.096 6.58 196.126 6.58C199.156 6.58 201.736 7.63 203.866 9.76C205.996 11.86 207.046 14.44 207.046 17.5C207.046 20.56 205.996 23.14 203.866 25.27ZM191.296 22.45C192.586 23.74 194.206 24.37 196.126 24.37C198.046 24.37 199.666 23.74 200.956 22.45C202.246 21.16 202.906 19.51 202.906 17.5C202.906 15.49 202.246 13.84 200.956 12.55C199.666 11.26 198.046 10.6 196.126 10.6C194.206 10.6 192.586 11.26 191.296 12.55C190.006 13.84 189.346 15.49 189.346 17.5C189.346 19.51 190.006 21.16 191.296 22.45ZM217.786 28.42C215.446 28.42 213.526 27.76 212.026 26.44C210.526 25.12 209.776 23.35 209.776 21.13V7H213.886V20.8C213.886 22.99 215.116 24.37 217.786 24.37C220.456 24.37 221.686 22.99 221.686 20.8V7H225.826V21.13C225.826 23.35 225.076 25.12 223.576 26.44C222.076 27.76 220.156 28.42 217.786 28.42ZM229.555 7H237.895C240.775 7 243.175 8.02 245.095 10.03C247.045 12.04 248.005 14.53 248.005 17.5C248.005 20.47 247.045 22.96 245.095 24.97C243.175 26.98 240.775 28 237.895 28H229.555V7ZM233.695 24.04H237.895C239.725 24.04 241.195 23.44 242.335 22.24C243.475 21.01 244.045 19.45 244.045 17.5C244.045 15.55 243.475 13.99 242.335 12.79C241.195 11.56 239.725 10.96 237.895 10.96H233.695V24.04Z" fill="url(#paint4_linear_2091_20)"/>
<defs>
<linearGradient id="paint0_linear_2091_20" x1="18.9367" y1="39.0713" x2="18.9367" y2="20.5567" gradientUnits="userSpaceOnUse">
<stop stop-color="#00FFFF"/>
<stop offset="0.838542" stop-color="#3D3BB6"/>
</linearGradient>
<linearGradient id="paint1_linear_2091_20" x1="19" y1="0" x2="19" y2="18.5146" gradientUnits="userSpaceOnUse">
<stop stop-color="#00FFFF"/>
<stop offset="0.838542" stop-color="#3D3BB6"/>
</linearGradient>
<linearGradient id="paint2_linear_2091_20" x1="19" y1="0" x2="19" y2="18.5146" gradientUnits="userSpaceOnUse">
<stop stop-color="#00FFFF"/>
<stop offset="0.838542" stop-color="#3D3BB6"/>
</linearGradient>
<linearGradient id="paint3_linear_2091_20" x1="19" y1="0" x2="19" y2="18.5146" gradientUnits="userSpaceOnUse">
<stop stop-color="#00FFFF"/>
<stop offset="0.838542" stop-color="#3D3BB6"/>
</linearGradient>
<linearGradient id="paint4_linear_2091_20" x1="150.5" y1="4" x2="150.5" y2="36" gradientUnits="userSpaceOnUse">
<stop stop-color="#00FFFF"/>
<stop offset="0.838542" stop-color="#3D3BB6"/>
</linearGradient>
</defs>
</svg>
