<svg width="58" height="58" viewBox="0 0 58 58" fill="none" xmlns="http://www.w3.org/2000/svg">
<path d="M29 0C12.9277 0 0 12.9277 0 29C0 45.0723 12.9277 58 29 58C45.0723 58 58 45.0723 58 29C58 12.9277 45.0723 0 29 0ZM48.0422 17.1205C48.0422 17.2952 48.0422 17.4699 47.8675 17.6446C46.994 18.8675 45.9458 19.9157 44.8976 20.7892C44.7229 20.9639 44.3735 21.1386 44.3735 21.3132C44.3735 27.6024 42.8012 33.8916 38.259 38.4337C32.494 44.1988 23.759 45.7711 16.0723 43.6747C14.5 43.3253 13.1024 42.6265 11.7048 41.9277C11.1807 41.753 10.8313 41.4036 10.3072 41.0542C10.1325 40.8795 10.1325 40.8795 10.1325 40.8795C10.3072 40.8795 10.3072 40.8795 10.6566 40.8795C12.753 41.0542 15.0241 40.7048 17.1205 40.006C18.1687 39.6566 20.6145 38.7831 21.3132 37.735C20.9639 37.735 20.7892 37.7349 20.4398 37.5602C18.3434 37.0361 15.5482 35.988 14.1506 32.3193C14.1506 32.1446 14.1506 31.9699 14.3253 31.9699C16.0723 32.1446 16.5964 31.9699 17.2952 31.7952C16.9458 31.7952 16.5964 31.6205 16.247 31.4458C13.6265 30.3976 11.7048 27.7771 11.3554 24.9819C11.3554 24.6325 11.3554 24.4578 11.3554 24.1084C11.3554 23.9337 11.5301 23.759 11.7048 23.9337C13.1024 24.6325 14.6747 24.8072 14.6747 24.8072C14.3253 24.4578 13.9759 24.2831 13.8012 23.9337C11.5301 21.8373 10.6566 17.2952 12.4036 14.5C12.5783 14.3253 12.5783 14.3253 12.753 14.5C16.9458 19.2169 22.1867 21.488 28.3012 22.3615C28.4759 22.3615 28.4759 22.3614 28.4759 22.1867C28.3012 21.1385 28.3012 20.0904 28.4759 18.8675C28.8253 17.8193 29.3494 16.5964 30.0482 15.7229C30.747 14.8494 31.6205 14.1506 32.6687 13.6265C33.7169 13.1024 34.7651 12.753 35.8133 12.753C37.0361 12.753 38.0843 12.9277 39.1325 13.2771C40.006 13.6265 40.7048 13.9759 41.4036 14.6747C41.5783 14.8494 41.753 14.8494 41.753 15.0241C41.753 15.0241 41.9277 15.1988 42.1024 15.0241C43.6747 14.6747 45.247 13.9759 46.6446 13.2771H46.8193V13.4518C46.6446 14.3253 46.1205 15.0241 45.5964 15.7229C45.247 16.247 44.3735 17.2952 43.6747 17.4699C45.4217 17.994 46.8193 17.6446 48.0422 17.1205Z" fill="url(#paint0_linear_2080_16)"/>
<defs>
<linearGradient id="paint0_linear_2080_16" x1="29" y1="0" x2="29" y2="58" gradientUnits="userSpaceOnUse">
<stop stop-color="#00FFFF"/>
<stop offset="0.838542" stop-color="#3D3BB6"/>
</linearGradient>
</defs>
</svg>
