<svg width="59" height="58" viewBox="0 0 59 58" fill="none" xmlns="http://www.w3.org/2000/svg">
<path d="M29.5167 0C13.6067 0 0.668945 12.9378 0.668945 28.8478C0.668945 44.7578 13.6067 57.6956 29.5167 57.6956C45.4267 57.6956 58.3645 44.7578 58.3645 28.8478C58.5393 12.9378 45.6015 0 29.5167 0ZM48.224 38.4637C45.4267 40.5617 42.1048 42.1352 38.783 43.1842C38.0836 42.1352 37.3843 41.0862 36.6849 39.8624C37.7339 39.5127 38.783 38.9882 39.832 38.2889C39.4823 38.114 39.3075 37.9392 39.1326 37.7643C33.1883 40.5617 26.1948 40.5617 20.2504 37.7643C20.0756 37.9392 19.7259 38.114 19.5511 38.2889C20.6001 38.8134 21.6491 39.3379 22.6981 39.8624C22.1736 41.0862 21.4743 42.1352 20.6001 43.1842C17.2783 42.1352 13.9564 40.5617 11.159 38.4637C10.4597 31.4703 11.8584 24.4769 16.7537 17.1338C19.2014 16.0848 21.8239 15.2106 24.4465 14.6861C24.7961 15.3855 25.1458 16.0848 25.4955 16.7841C28.2928 16.4345 31.265 16.4345 34.0624 16.7841C34.4121 16.0848 34.7617 15.3855 35.1114 14.6861C37.7339 15.2106 40.3564 15.91 42.8041 17.1338C46.8253 23.2531 48.9234 30.2465 48.224 38.4637Z" fill="url(#paint0_linear_2080_17)"/>
<path d="M23.3971 26.5752C21.4739 26.5752 20.0752 28.3235 20.0752 30.4216C20.0752 32.5196 21.6488 34.0931 23.3971 34.0931C25.3203 34.0931 26.719 32.3448 26.719 30.2467C26.8938 28.3236 25.3203 26.5752 23.3971 26.5752Z" fill="url(#paint1_linear_2080_17)"/>
<path d="M35.8111 26.5752C33.8879 26.5752 32.4893 28.3235 32.4893 30.4216C32.4893 32.5196 34.0628 34.0931 35.8111 34.0931C37.7343 34.0931 39.133 32.3448 39.133 30.2467C39.3079 28.3236 37.7343 26.5752 35.8111 26.5752Z" fill="url(#paint2_linear_2080_17)"/>
<defs>
<linearGradient id="paint0_linear_2080_17" x1="29.5176" y1="0" x2="29.5176" y2="57.6956" gradientUnits="userSpaceOnUse">
<stop stop-color="#00FFFF"/>
<stop offset="0.838542" stop-color="#3D3BB6"/>
</linearGradient>
<linearGradient id="paint1_linear_2080_17" x1="23.4037" y1="26.5752" x2="23.4037" y2="34.0931" gradientUnits="userSpaceOnUse">
<stop stop-color="#00FFFF"/>
<stop offset="0.838542" stop-color="#3D3BB6"/>
</linearGradient>
<linearGradient id="paint2_linear_2080_17" x1="35.8178" y1="26.5752" x2="35.8178" y2="34.0931" gradientUnits="userSpaceOnUse">
<stop stop-color="#00FFFF"/>
<stop offset="0.838542" stop-color="#3D3BB6"/>
</linearGradient>
</defs>
</svg>
