<svg width="59" height="58" viewBox="0 0 59 58" fill="none" xmlns="http://www.w3.org/2000/svg">
<path d="M29.517 0C13.607 0 0.669189 12.9378 0.669189 28.8478C0.669189 44.7578 13.607 57.6956 29.517 57.6956C45.427 57.6956 58.3647 44.7578 58.3647 28.8478C58.5396 12.9378 45.6018 0 29.517 0ZM48.2243 38.4637C45.4269 40.5617 42.1051 42.1352 38.7832 43.1842C38.0839 42.1352 37.3845 41.0862 36.6852 39.8624C37.7342 39.5127 38.7832 38.9882 39.8322 38.2889C39.4826 38.114 39.3077 37.9392 39.1329 37.7643C33.1885 40.5617 26.1951 40.5617 20.2507 37.7643C20.0758 37.9392 19.7262 38.114 19.5513 38.2889C20.6004 38.8134 21.6493 39.3379 22.6984 39.8624C22.1739 41.0862 21.4745 42.1352 20.6004 43.1842C17.2785 42.1352 13.9567 40.5617 11.1593 38.4637C10.46 31.4703 11.8586 24.4769 16.754 17.1338C19.2017 16.0848 21.8242 15.2106 24.4467 14.6861C24.7964 15.3855 25.1461 16.0848 25.4957 16.7841C28.2931 16.4345 31.2653 16.4345 34.0626 16.7841C34.4123 16.0848 34.762 15.3855 35.1117 14.6861C37.7342 15.2106 40.3567 15.91 42.8044 17.1338C46.8256 23.2531 48.9236 30.2465 48.2243 38.4637Z" fill="white"/>
<path d="M23.3977 26.5748C21.4746 26.5748 20.0758 28.3232 20.0758 30.4212C20.0758 32.5192 21.6494 34.0927 23.3977 34.0927C25.3209 34.0927 26.7196 32.3444 26.7196 30.2464C26.8944 28.3232 25.3209 26.5748 23.3977 26.5748Z" fill="white"/>
<path d="M35.811 26.5748C33.8878 26.5748 32.4891 28.3232 32.4891 30.4212C32.4891 32.5192 34.0626 34.0927 35.811 34.0927C37.7342 34.0927 39.1329 32.3444 39.1329 30.2464C39.3077 28.3232 37.7342 26.5748 35.811 26.5748Z" fill="white"/>
</svg>
