<svg width="76" height="76" viewBox="0 0 76 76" fill="none" xmlns="http://www.w3.org/2000/svg">
<g clip-path="url(#clip0_218_16)">
<path d="M2.4727 48.5191L22.8933 27.4096C23.1296 27.1653 23.5615 27.1101 23.8548 27.3938L31.7243 35.0065C31.9687 35.2429 31.9768 35.7236 31.7404 35.968C31.5986 36.1146 31.4552 36.165 31.3118 36.2154C30.9288 36.3179 30.5458 36.4204 30.1644 36.619C29.783 36.8176 29.4505 37.0635 29.1669 37.3567C28.4106 38.1386 28.0437 39.2025 28.0125 40.2129C27.9813 41.2232 28.4309 42.2257 29.2619 43.0295C30.0439 43.786 31.108 44.1532 32.1184 44.1847C33.176 44.1673 34.1311 43.7669 34.9346 42.9362C35.2183 42.643 35.5003 42.2537 35.6389 41.9148C35.8247 41.5271 35.9617 41.092 36.0025 40.6586C36.045 40.3212 36.4248 40.0265 36.7621 40.069C36.9071 40.1147 37.0521 40.1604 37.1499 40.255L45.0194 47.8677C45.3127 48.1514 45.2719 48.5849 45.0355 48.8292L38.2287 55.8657C38.3737 55.9114 38.5187 55.9571 38.6165 56.0517C39.1493 56.2833 39.5876 56.6128 39.9786 56.991C41.054 58.0313 41.5573 59.3694 41.6287 60.7628C41.6512 62.1089 41.1457 63.5117 40.1058 64.5868C39.0658 65.6618 37.7278 66.1646 36.3344 66.2356C34.9884 66.2578 33.5854 65.7519 32.51 64.7116C32.119 64.3334 31.7263 63.8589 31.526 63.3814C31.4755 63.2379 31.3777 63.1434 31.3273 62.9999L24.6149 69.9387C24.3313 70.2319 23.9467 70.2382 23.6534 69.9545L15.8328 62.3891C15.5884 62.1527 15.5331 61.7208 15.8167 61.4276C15.9112 61.3299 16.1019 61.2305 16.1981 61.229C16.5811 61.1265 16.964 61.024 17.3454 60.8254C17.7268 60.6268 18.0593 60.3809 18.3429 60.0877C19.0992 59.3059 19.4661 58.2419 19.4973 57.2316C19.4796 56.1739 19.0789 55.2188 18.248 54.4149C17.4659 53.6584 16.4018 53.2912 15.3915 53.2597C14.3338 53.2771 13.3788 53.6775 12.5752 54.5082C12.2916 54.8014 12.0568 55.1419 11.871 55.5296C11.6851 55.9174 11.5954 56.3035 11.5057 56.6897C11.4632 57.027 11.0835 57.3218 10.7461 57.2792C10.5522 57.1863 10.4072 57.1406 10.3094 57.046L2.48879 49.4806C2.19552 49.1969 2.18908 48.8123 2.4727 48.5191ZM48.4512 2.94567L68.5894 22.4267L62.3025 28.9256C62.252 28.7822 62.2015 28.6388 62.1038 28.5442C61.8073 28.0682 61.5108 27.5922 61.1197 27.2139C60.0444 26.1737 58.6903 25.7151 57.2953 25.6899C55.9492 25.712 54.5639 26.2638 53.524 27.3388C52.484 28.4138 52.0258 29.7678 52.0011 31.1628C52.0236 32.5088 52.5758 33.8943 53.6511 34.9345C54.0421 35.3128 54.4804 35.6422 55.0133 35.8739C55.1583 35.9196 55.2561 36.0142 55.4011 36.0599L49.1142 42.5589L41.7335 35.419C41.6357 35.3244 41.4907 35.2787 41.3456 35.233C41.0083 35.1905 40.6758 35.4364 40.5861 35.8225C40.5453 36.256 40.4067 36.5949 40.2208 36.9827C40.035 37.3704 39.8002 37.7109 39.5166 38.0041C38.7603 38.7859 37.7091 39.1879 36.7003 39.2526C35.6427 39.2699 34.6748 38.9012 33.8438 38.0973C33.0617 37.3408 32.6595 36.2895 32.5945 35.2807C32.5295 34.2719 32.9453 33.2553 33.7489 32.4246C34.0325 32.1314 34.4123 31.8366 34.7464 31.6869C35.1277 31.4882 35.5107 31.3858 35.8937 31.2833C36.0371 31.2328 36.1806 31.1824 36.2751 31.0847C36.5114 30.8403 36.5523 30.4069 36.259 30.1232L28.976 23.0779L35.3102 16.53C35.3607 16.6735 35.4112 16.8169 35.5089 16.9115C35.7581 17.4363 36.1019 17.8635 36.5418 18.289C37.6172 19.3293 38.9713 19.7879 40.3662 19.813C41.7123 19.7909 43.0976 19.2392 44.1376 18.1641C45.1775 17.0891 45.6357 15.7351 45.6605 14.3402C45.6379 12.9941 45.0858 11.6087 44.0105 10.5684C43.5705 10.1429 43.1322 9.81345 42.5994 9.58177C42.4071 9.58493 42.2621 9.53923 42.117 9.49352L48.4512 2.94567ZM23.3982 28.8439L3.92298 48.9761L10.4239 55.2649C10.4696 55.1199 10.5152 54.9748 10.6098 54.8771C10.8902 54.3916 11.1706 53.9061 11.5487 53.5152C12.5887 52.4402 13.9267 51.9373 15.3201 51.8663C16.7134 51.7953 18.0692 52.3501 19.1445 53.3904C20.2198 54.4306 20.7231 55.7688 20.7945 57.1621C20.817 58.5082 20.3116 59.9111 19.2716 60.9861C18.8935 61.377 18.4664 61.7206 17.9416 61.9697C17.7982 62.0201 17.7037 62.1179 17.5602 62.1683L24.0612 68.4571L31.1989 61.0785C31.2935 60.9808 31.4369 60.9304 31.5803 60.8799C31.916 60.8263 32.2566 61.0611 32.3591 61.4442C32.4145 61.876 32.5643 62.2102 32.7631 62.5916C32.9618 62.9731 33.2078 63.3056 33.5011 63.5893C34.2831 64.3459 35.3472 64.7131 36.3576 64.7446C37.4152 64.7272 38.3703 64.3268 39.1739 63.4961C39.9302 62.7142 40.2971 61.6503 40.3282 60.6399C40.3105 59.5823 39.9099 58.6271 39.0789 57.8233C38.7856 57.5396 38.3962 57.2575 38.0573 57.1188C37.6695 56.9328 37.2833 56.843 36.8971 56.7532C36.752 56.7075 36.607 56.6618 36.5092 56.5672C36.2648 56.3308 36.2568 55.85 36.4931 55.6057L43.6309 48.2271L37.0811 41.8911C37.0354 42.0361 36.9898 42.1811 36.8952 42.2789C36.6637 42.8116 36.3344 43.2498 35.909 43.6896C34.8691 44.7646 33.531 45.2675 32.1377 45.3385C30.7916 45.3606 29.3886 44.8547 28.3132 43.8145C27.2379 42.7742 26.7346 41.4361 26.6632 40.0427C26.6407 38.6966 27.1462 37.2938 28.1861 36.2187C28.6115 35.779 29.0386 35.4353 29.5634 35.1863C29.7068 35.1358 29.8502 35.0854 29.9448 34.9876L23.4927 28.7462L23.3982 28.8439Z" fill="white"/>
</g>
<defs>
<clipPath id="clip0_218_16">
<rect width="65.4032" height="38.1519" fill="white" transform="translate(2 49.0077) rotate(-45.9504)"/>
</clipPath>
</defs>
</svg>
