<svg width="245" height="43" viewBox="0 0 245 43" fill="none" xmlns="http://www.w3.org/2000/svg">
<path d="M20.416 42.2644L40.8321 22.3034H0L20.416 42.2644Z" fill="url(#paint0_linear_270_111)"/>
<path d="M35.0091 14.5526C38.5085 14.5636 40.8633 15.8664 41.0004 19.961H23.2505V14.5526H35.0091Z" fill="url(#paint1_linear_270_111)"/>
<path d="M35.4888 11.1514H23.2505V7.97324H32.2214C33.2768 7.97324 35.4888 8.10698 35.4888 11.1514Z" fill="url(#paint2_linear_270_111)"/>
<path d="M19.3401 4.62783V12.6568V19.961H0.0317383C0.0317383 16.3925 3.4218 14.6269 5.11684 14.5526V13.5489C5.11684 7.6164 10.9055 5.12964 13.4641 4.62783C13.9114 3.08522 15.1756 0 19.3401 0C26.5355 0 29.1987 3.08522 29.6308 4.62783H19.3401Z" fill="url(#paint3_linear_270_111)"/>
<path d="M60.558 10.8H49.69V29H53.278V21.98H60.35V18.548H53.278V14.232H60.558V10.8ZM77.0304 29L73.0004 22.136C75.1064 21.174 76.5104 19.094 76.5104 16.832C76.5104 15.168 75.9124 13.738 74.7424 12.568C73.5724 11.398 72.1424 10.8 70.4524 10.8H63.1724V29H66.7604V22.682H69.4904L73.1564 29H77.0304ZM70.4524 14.154C71.8044 14.154 72.9224 15.35 72.9224 16.832C72.9224 18.314 71.8044 19.536 70.4524 19.536H66.7604V14.154H70.4524ZM82.7311 21.486H89.6211V18.106H82.7311V14.232H90.2711V10.8H79.1431V29H90.4011V25.568H82.7311V21.486ZM108.81 29L102.414 10.8H97.9675L91.5975 29H95.4715L96.5635 25.724H103.818L104.91 29H108.81ZM100.204 14.934L102.7 22.37H97.7075L100.204 14.934ZM117.805 19.64L124.539 10.8H120.405L114.165 18.834V10.8H110.577V29H114.165V20.472L120.665 29H124.799L117.805 19.64ZM141.705 29.364C145.033 29.364 147.971 27.7 149.531 25.074L146.437 23.28C145.579 24.866 143.785 25.854 141.705 25.854C139.937 25.854 138.507 25.308 137.415 24.19C136.349 23.072 135.803 21.642 135.803 19.9C135.803 18.132 136.349 16.702 137.415 15.584C138.507 14.466 139.937 13.92 141.705 13.92C143.785 13.92 145.527 14.882 146.437 16.52L149.531 14.726C147.971 12.1 145.007 10.436 141.705 10.436C138.975 10.436 136.713 11.346 134.919 13.166C133.125 14.96 132.241 17.222 132.241 19.9C132.241 22.578 133.125 24.814 134.919 26.634C136.713 28.454 138.975 29.364 141.705 29.364ZM155.323 10.8H151.735V29H162.265V25.568H155.323V10.8ZM179.617 26.634C181.463 24.788 182.373 22.552 182.373 19.9C182.373 17.248 181.463 15.012 179.617 13.192C177.771 11.346 175.535 10.436 172.909 10.436C170.283 10.436 168.047 11.346 166.201 13.192C164.381 15.012 163.471 17.248 163.471 19.9C163.471 22.552 164.381 24.788 166.201 26.634C168.047 28.454 170.283 29.364 172.909 29.364C175.535 29.364 177.771 28.454 179.617 26.634ZM168.723 24.19C167.605 23.072 167.033 21.642 167.033 19.9C167.033 18.158 167.605 16.728 168.723 15.61C169.841 14.492 171.245 13.92 172.909 13.92C174.573 13.92 175.977 14.492 177.095 15.61C178.213 16.728 178.785 18.158 178.785 19.9C178.785 21.642 178.213 23.072 177.095 24.19C175.977 25.308 174.573 25.854 172.909 25.854C171.245 25.854 169.841 25.308 168.723 24.19ZM191.681 29.364C193.735 29.364 195.399 28.792 196.699 27.648C197.999 26.504 198.649 24.97 198.649 23.046V10.8H195.061V22.76C195.061 24.658 193.995 25.854 191.681 25.854C189.367 25.854 188.301 24.658 188.301 22.76V10.8H184.739V23.046C184.739 24.97 185.389 26.504 186.689 27.648C187.989 28.792 189.653 29.364 191.681 29.364ZM201.881 10.8V29H209.109C211.605 29 213.685 28.116 215.349 26.374C217.039 24.632 217.871 22.474 217.871 19.9C217.871 17.326 217.039 15.168 215.349 13.426C213.685 11.684 211.605 10.8 209.109 10.8H201.881ZM205.469 25.568V14.232H209.109C210.695 14.232 211.969 14.752 212.957 15.818C213.945 16.858 214.439 18.21 214.439 19.9C214.439 21.59 213.945 22.942 212.957 24.008C211.969 25.048 210.695 25.568 209.109 25.568H205.469Z" fill="url(#paint4_linear_270_111)"/>
<defs>
<linearGradient id="paint0_linear_270_111" x1="20.416" y1="42.2644" x2="20.416" y2="22.3283" gradientUnits="userSpaceOnUse">
<stop stop-color="#85CFF9"/>
<stop offset="0.859375" stop-color="#35346A"/>
</linearGradient>
<linearGradient id="paint1_linear_270_111" x1="20.516" y1="0" x2="20.516" y2="19.961" gradientUnits="userSpaceOnUse">
<stop stop-color="#85CFF9"/>
<stop offset="0.838542" stop-color="#35346A"/>
</linearGradient>
<linearGradient id="paint2_linear_270_111" x1="20.516" y1="0" x2="20.516" y2="19.961" gradientUnits="userSpaceOnUse">
<stop stop-color="#85CFF9"/>
<stop offset="0.838542" stop-color="#35346A"/>
</linearGradient>
<linearGradient id="paint3_linear_270_111" x1="20.516" y1="0" x2="20.516" y2="19.961" gradientUnits="userSpaceOnUse">
<stop stop-color="#85CFF9"/>
<stop offset="0.838542" stop-color="#35346A"/>
</linearGradient>
<linearGradient id="paint4_linear_270_111" x1="146.5" y1="8" x2="146.5" y2="32" gradientUnits="userSpaceOnUse">
<stop stop-color="#85CFF9"/>
<stop offset="0.838542" stop-color="#35346A"/>
</linearGradient>
</defs>
</svg>
