<svg width="76" height="76" viewBox="0 0 76 76" fill="none" xmlns="http://www.w3.org/2000/svg">
<path fill-rule="evenodd" clip-rule="evenodd" d="M32.5802 51.8919L38.7353 34.9337H26.1454L44.2375 11.6505L37.3364 28.6087H50.0195L32.5802 51.8919ZM46.1027 9.3589L46.942 7.70891C46.1959 7.34225 45.4499 7.06725 44.7038 6.79225L44.051 8.5339C44.7038 8.71724 45.4499 9.0839 46.1027 9.3589ZM57.5735 27.5087H59.4386C59.4386 20.4505 55.9881 13.7589 50.1128 9.54223L48.9937 11.1005C54.3094 14.9505 57.5735 21.0921 57.5735 27.5087ZM28.6634 60.1418H47.315C47.8746 48.0419 64.1015 46.0253 64.1015 27.5087C64.1015 13.4839 52.9105 2.30062 37.896 1.93396C17.5656 1.38396 2.55106 26.5921 18.8713 44.8336C23.6274 50.1502 28.3836 53.1752 28.6634 60.1418ZM49.2735 61.9751H26.7982C26.9847 52.1669 20.7364 51.4335 14.8612 42.9086C1.89825 24.3004 16.6331 -0.54102 38.1757 0.00897553C61.7701 0.650637 73.1476 25.5838 61.2105 42.9086C55.3353 51.4335 49.087 52.1669 49.2735 61.9751ZM27.8241 76H48.2476V73.525H27.8241V76ZM48.2476 71.6V69.0334H27.8241V71.6H48.2476ZM48.2476 67.1084V64.3584H27.8241V67.1084H48.2476Z" fill="white"/>
</svg>
