<svg width="76" height="76" viewBox="0 0 76 76" fill="none" xmlns="http://www.w3.org/2000/svg">
<g clip-path="url(#clip0_218_22)">
<path d="M69.6288 14.0526L69.1649 10.9352L66.1958 10.085C65.8247 9.99055 62.4845 8.95142 53.7628 6.68421C44.0206 4.1336 39.4742 3.18893 39.4742 3.18893L38.5463 3L37.6185 3.18893C37.6185 3.18893 33.0721 4.1336 23.3298 6.68421C14.4226 8.95142 11.0824 9.99055 10.8041 10.085L7.835 10.9352L7.37108 14.0526C7.27829 14.525 5.70098 24.6329 10.0618 42.6761C13.9587 59.0189 26.9484 68.9379 36.969 72.4332L38.5463 73L40.1237 72.4332C50.0515 68.9379 63.134 59.0189 67.0309 42.6761C71.2989 24.6329 69.7216 14.4305 69.6288 14.0526ZM64.6185 42.1093C60.9072 57.5074 48.6597 66.8596 39.2886 70.166L38.4536 70.4494L37.7113 70.0715C28.2474 66.8596 15.9999 57.5074 12.3814 42.1093C8.11335 24.5385 9.59788 14.8084 9.69067 14.4305L9.96902 12.8246L11.4536 12.4467C11.5463 12.4467 14.7938 11.502 23.7938 9.04588C33.3505 6.49528 37.8041 5.64507 37.9896 5.55061L38.4536 5.45614L38.9175 5.55061C39.103 5.55061 43.5566 6.49528 53.1133 9.04588C62.1133 11.4076 65.3608 12.3522 65.4536 12.4467L66.9381 12.919L67.2164 14.525C67.402 14.8084 68.7938 24.5385 64.6185 42.1093Z" fill="white"/>
<path d="M52.2783 12.6356C43.9278 10.4629 39.4742 9.42377 38.4536 9.23483C37.433 9.42377 32.9794 10.4629 24.6289 12.6356C18.0412 14.336 14.5155 15.3752 13.1237 15.7531C12.8454 18.2092 12.4742 27.0891 15.8144 41.2591C19.1546 54.9568 30.0103 63.3644 38.4536 66.4818C46.8969 63.3644 57.7526 54.9568 61.0928 41.1647C64.5258 26.9002 64.0619 18.1147 63.7835 15.6586C62.3918 15.3752 58.9588 14.336 52.2783 12.6356Z" fill="white"/>
</g>
<defs>
<clipPath id="clip0_218_22">
<rect width="63" height="70" fill="white" transform="translate(7 3)"/>
</clipPath>
</defs>
</svg>
