<svg width="58" height="58" viewBox="0 0 58 58" fill="none" xmlns="http://www.w3.org/2000/svg">
<path d="M28.9999 0C12.9277 0 0 12.9277 0 29C0 45.0723 12.9277 58 28.9999 58C45.0722 58 58 45.0723 58 29C58 12.9277 44.8975 0 28.9999 0ZM42.8012 18.8675C42.8012 20.0904 42.1024 24.1085 41.4036 28.6506C40.3554 34.9398 39.3072 41.753 39.3072 41.753C39.3072 41.753 39.1325 43.6747 37.7349 44.0241C36.3373 44.3735 33.8915 42.8012 33.5421 42.4518C33.1927 42.2771 27.253 38.4338 25.1566 36.5121C24.6325 35.988 23.9337 34.9398 25.1566 33.8916C28.1265 31.0964 31.7952 27.7771 33.8915 25.506C34.9397 24.4578 35.9879 22.1868 31.7951 24.9819C25.8554 29 19.9156 33.0181 19.9156 33.0181C19.9156 33.0181 18.518 33.8916 16.0723 33.0181C13.6265 32.3193 10.6566 31.2711 10.6566 31.2711C10.6566 31.2711 8.56023 30.0482 12.0542 28.6506C12.0542 28.6506 26.5542 22.7109 31.6204 20.6145C33.5421 19.741 40.006 17.1205 40.006 17.1205C40.006 17.1205 42.9759 16.0723 42.8012 18.8675Z" fill="white"/>
</svg>
